<svg width="42" height="42" viewBox="0 0 42 42" fill="none" xmlns="http://www.w3.org/2000/svg">
<path d="M18.0131 0L15.4471 6.23192C14.9339 6.38903 14.4721 6.65087 14.0102 6.91272L7.90318 4.29426L4.20819 8.06484L6.77416 14.2968C6.51756 14.8204 6.31228 15.2394 6.107 15.7631L0 18.3815V23.6185L6.107 26.2369C6.31228 26.7606 6.51756 27.1796 6.77416 27.7032L4.20819 33.9352L7.90318 37.7057L14.0102 35.0873C14.4721 35.2968 14.9339 35.5586 15.4471 35.7681L18.0131 42H23.145L25.711 35.7681C26.1729 35.5586 26.6861 35.3491 27.1479 35.0873L33.2549 37.7057L36.9499 33.9352L34.384 27.7032C34.5893 27.2319 34.8458 26.7082 35.0511 26.2369L41.1581 23.6185V18.3815L35.0511 15.7631C34.8972 15.2918 34.6406 14.7681 34.384 14.2968L36.9499 8.06484L33.2549 4.29426L27.1479 6.91272C26.6861 6.70324 26.1729 6.4414 25.711 6.23192L23.145 0L18.0131 0ZM20.5791 13.0923C24.8386 13.0923 28.277 16.601 28.277 20.9476C28.277 25.2943 24.8386 28.803 20.5791 28.803C16.3196 28.803 12.8812 25.2943 12.8812 20.9476C12.8812 16.601 16.3196 13.0923 20.5791 13.0923Z" fill="black"/>
</svg>
