<svg width="44" height="42" viewBox="0 0 44 42" fill="none" xmlns="http://www.w3.org/2000/svg">
<path d="M19.0109 0.86086C8.64457 0.86086 0.211853 8.82711 0.211853 18.62C0.211853 28.4129 8.64457 36.3792 19.0109 36.3792C22.1799 36.3792 25.2952 35.6688 27.927 34.2988C28.1379 34.5385 28.3716 34.7593 28.6253 34.9584L33.9964 40.0325C34.4924 40.5597 35.0972 40.9855 35.7737 41.2839C36.4502 41.5823 37.1841 41.747 37.9304 41.7677C38.6766 41.7885 39.4195 41.6649 40.1134 41.4046C40.8073 41.1443 41.4376 40.7528 41.9655 40.2541C42.4934 39.7554 42.9079 39.16 43.1834 38.5045C43.459 37.8489 43.5897 37.1471 43.5678 36.4422C43.5458 35.7372 43.3715 35.0438 43.0557 34.4048C42.7398 33.7657 42.289 33.1944 41.7309 32.7259L36.3598 27.6518C36.0981 27.4046 35.8101 27.1835 35.5004 26.9922C36.9506 24.5059 37.8637 21.6137 37.8637 18.5693C37.8637 8.77637 29.431 0.81012 19.0646 0.81012L19.0109 0.86086ZM19.0109 5.9349C26.4768 5.9349 32.4388 11.5671 32.4388 18.62C32.4388 21.9689 31.1497 25.064 28.8938 27.3474C28.8401 27.3981 28.7864 27.4488 28.7327 27.4996C28.479 27.6987 28.2453 27.9196 28.0345 28.1592C25.6712 30.1888 22.4485 31.3559 18.9572 31.3559C11.4913 31.3559 5.5293 25.7237 5.5293 18.6708C5.5293 11.6178 11.4913 5.98564 18.9572 5.98564L19.0109 5.9349Z" fill="black"/>
</svg>
