<svg width="46" height="46" viewBox="0 0 46 46" fill="none" xmlns="http://www.w3.org/2000/svg">
<path d="M14.467 21.367C14.2576 21.5857 14.0935 21.8437 13.984 22.126C13.754 22.686 13.754 23.314 13.984 23.874C14.0935 24.1563 14.2576 24.4143 14.467 24.633L21.367 31.533C21.8001 31.9661 22.3875 32.2094 23 32.2094C23.6125 32.2094 24.1999 31.9661 24.633 31.533C25.0661 31.0999 25.3094 30.5125 25.3094 29.9C25.3094 29.2875 25.0661 28.7001 24.633 28.267L21.643 25.3H29.9C30.51 25.3 31.095 25.0577 31.5263 24.6263C31.9577 24.195 32.2 23.61 32.2 23C32.2 22.39 31.9577 21.805 31.5263 21.3736C31.095 20.9423 30.51 20.7 29.9 20.7H21.643L24.633 17.733C24.8486 17.5192 25.0197 17.2648 25.1364 16.9845C25.2532 16.7042 25.3133 16.4036 25.3133 16.1C25.3133 15.7964 25.2532 15.4957 25.1364 15.2155C25.0197 14.9352 24.8486 14.6808 24.633 14.467C24.4192 14.2514 24.1648 14.0803 23.8845 13.9635C23.6042 13.8468 23.3036 13.7867 23 13.7867C22.6964 13.7867 22.3957 13.8468 22.1155 13.9635C21.8352 14.0803 21.5808 14.2514 21.367 14.467L14.467 21.367ZM0 23C0 27.549 1.34893 31.9958 3.8762 35.7781C6.40347 39.5604 9.99558 42.5084 14.1983 44.2492C18.401 45.99 23.0255 46.4455 27.4871 45.558C31.9486 44.6706 36.0468 42.48 39.2634 39.2634C42.48 36.0468 44.6706 31.9486 45.558 27.4871C46.4455 23.0255 45.99 18.401 44.2492 14.1983C42.5084 9.99558 39.5604 6.40347 35.7781 3.8762C31.9958 1.34893 27.549 0 23 0C19.9796 0 16.9888 0.594912 14.1983 1.75077C11.4078 2.90663 8.87229 4.6008 6.73654 6.73654C2.42321 11.0499 0 16.9 0 23ZM41.4 23C41.4 26.6392 40.3208 30.1966 38.299 33.2225C36.2772 36.2483 33.4035 38.6067 30.0414 39.9994C26.6792 41.392 22.9796 41.7564 19.4103 41.0464C15.8411 40.3365 12.5625 38.584 9.98923 36.0108C7.41595 33.4375 5.66352 30.1589 4.95355 26.5897C4.24358 23.0204 4.60796 19.3208 6.00062 15.9586C7.39327 12.5965 9.75164 9.72277 12.7775 7.70096C15.8034 5.67914 19.3608 4.6 23 4.6C27.88 4.6 32.5601 6.53856 36.0108 9.98923C39.4614 13.4399 41.4 18.12 41.4 23Z" fill="#2AE1FF"/>
</svg>
