<svg width="42" height="42" viewBox="0 0 42 42" fill="none" xmlns="http://www.w3.org/2000/svg">
<path d="M18.3815 0L15.7631 6.23192C15.2394 6.38903 14.7681 6.65087 14.2968 6.91272L8.06484 4.29426L4.29426 8.06484L6.91272 14.2968C6.65087 14.8204 6.4414 15.2394 6.23192 15.7631L0 18.3815V23.6185L6.23192 26.2369C6.4414 26.7606 6.65087 27.1796 6.91272 27.7032L4.29426 33.9352L8.06484 37.7057L14.2968 35.0873C14.7681 35.2968 15.2394 35.5586 15.7631 35.7681L18.3815 42H23.6185L26.2369 35.7681C26.7082 35.5586 27.2319 35.3491 27.7032 35.0873L33.9352 37.7057L37.7057 33.9352L35.0873 27.7032C35.2968 27.2319 35.5586 26.7082 35.7681 26.2369L42 23.6185V18.3815L35.7681 15.7631C35.611 15.2918 35.3491 14.7681 35.0873 14.2968L37.7057 8.06484L33.9352 4.29426L27.7032 6.91272C27.2319 6.70324 26.7082 6.4414 26.2369 6.23192L23.6185 0L18.3815 0ZM21 13.0923C25.3466 13.0923 28.8554 16.601 28.8554 20.9476C28.8554 25.2943 25.3466 28.803 21 28.803C16.6534 28.803 13.1446 25.2943 13.1446 20.9476C13.1446 16.601 16.6534 13.0923 21 13.0923Z" fill="black"/>
</svg>
