<svg width="56" height="56" viewBox="0 0 56 56" fill="none" xmlns="http://www.w3.org/2000/svg">
<path d="M24.1892 0.069112C10.8506 0.069112 0 10.9197 0 24.2583C0 37.5969 10.8506 48.4475 24.1892 48.4475C28.2668 48.4475 32.2753 47.4799 35.6618 45.6139C35.933 45.9403 36.2338 46.2411 36.5602 46.5124L43.4714 53.4235C44.1096 54.1416 44.8878 54.7217 45.7582 55.1281C46.6287 55.5346 47.573 55.7588 48.5333 55.7871C49.4935 55.8153 50.4494 55.647 51.3423 55.2925C52.2351 54.938 53.0461 54.4047 53.7254 53.7254C54.4047 53.0461 54.938 52.2351 55.2925 51.3423C55.647 50.4494 55.8153 49.4935 55.7871 48.5333C55.7588 47.573 55.5346 46.6287 55.1281 45.7582C54.7217 44.8878 54.1416 44.1096 53.4235 43.4714L46.5124 36.5602C46.1757 36.2235 45.8051 35.9224 45.4066 35.6618C47.2726 32.2753 48.4475 28.3359 48.4475 24.1892C48.4475 10.8506 37.5969 0 24.2583 0L24.1892 0.069112ZM24.1892 6.98031C33.7957 6.98031 41.4672 14.6517 41.4672 24.2583C41.4672 28.8197 39.8085 33.0355 36.9058 36.1456C36.8367 36.2147 36.7676 36.2838 36.6985 36.3529C36.372 36.6242 36.0713 36.9249 35.8 37.2514C32.7591 40.0158 28.6124 41.6054 24.1201 41.6054C14.5135 41.6054 6.84208 33.934 6.84208 24.3274C6.84208 14.7208 14.5135 7.04942 24.1201 7.04942L24.1892 6.98031Z" fill="black"/>
</svg>
