<svg width="15" height="13" viewBox="0 0 15 13" fill="none" xmlns="http://www.w3.org/2000/svg">
<path d="M7.43604 1.58966C6.33279 1.58966 5.25432 1.88009 4.337 2.42422C3.41968 2.96836 2.70472 3.74176 2.28252 4.64662C1.86033 5.55148 1.74986 6.54716 1.96509 7.50776C2.18033 8.46835 2.71159 9.35072 3.49171 10.0433C4.27182 10.7358 5.26575 11.2075 6.3478 11.3985C7.42985 11.5896 8.55142 11.4915 9.57069 11.1167C10.59 10.7419 11.4611 10.1072 12.0741 9.29286C12.687 8.4785 13.0142 7.52108 13.0142 6.54167C13.0124 5.22879 12.4242 3.97012 11.3784 3.04177C10.3327 2.11343 8.91492 1.5912 7.43604 1.58966ZM7.43604 10.9111C6.46258 10.9111 5.51099 10.6548 4.70159 10.1747C3.89219 9.69459 3.26134 9.01218 2.88882 8.21377C2.51629 7.41537 2.41882 6.53682 2.60874 5.68924C2.79865 4.84165 3.26741 4.0631 3.95575 3.45202C4.64408 2.84095 5.52108 2.4248 6.47583 2.25621C7.43058 2.08761 8.4202 2.17414 9.31956 2.50485C10.2189 2.83556 10.9876 3.3956 11.5284 4.11415C12.0692 4.8327 12.3579 5.67748 12.3579 6.54167C12.3565 7.70012 11.8374 8.81075 10.9147 9.6299C9.99201 10.449 8.74096 10.9098 7.43604 10.9111ZM10.8267 6.54167C10.8267 6.61893 10.7921 6.69302 10.7306 6.74765C10.669 6.80227 10.5856 6.83296 10.4985 6.83296H7.43604C7.34901 6.83296 7.26555 6.80227 7.20402 6.74765C7.14248 6.69302 7.10791 6.61893 7.10791 6.54167V3.82292C7.10791 3.74566 7.14248 3.67157 7.20402 3.61694C7.26555 3.56231 7.34901 3.53162 7.43604 3.53162C7.52306 3.53162 7.60652 3.56231 7.66806 3.61694C7.72959 3.67157 7.76416 3.74566 7.76416 3.82292V6.25037H10.4985C10.5856 6.25037 10.669 6.28106 10.7306 6.33569C10.7921 6.39032 10.8267 6.46441 10.8267 6.54167Z" fill="#FF6500"/>
</svg>
