<svg width="88" height="88" viewBox="0 0 88 88" fill="none" xmlns="http://www.w3.org/2000/svg">
<path d="M27.676 40.876C27.2754 41.2944 26.9614 41.7879 26.752 42.328C26.3119 43.3992 26.3119 44.6008 26.752 45.672C26.9614 46.2121 27.2754 46.7055 27.676 47.124L40.876 60.324C41.7045 61.1525 42.8283 61.618 44 61.618C45.1717 61.618 46.2954 61.1525 47.124 60.324C47.9525 59.4954 48.418 58.3717 48.418 57.2C48.418 56.0283 47.9525 54.9045 47.124 54.076L41.404 48.4H57.2C58.3669 48.4 59.4861 47.9364 60.3113 47.1113C61.1364 46.2861 61.6 45.1669 61.6 44C61.6 42.833 61.1364 41.7139 60.3113 40.8887C59.4861 40.0636 58.3669 39.6 57.2 39.6H41.404L47.124 33.924C47.5364 33.515 47.8637 33.0283 48.0871 32.4921C48.3105 31.9559 48.4255 31.3808 48.4255 30.8C48.4255 30.2191 48.3105 29.644 48.0871 29.1079C47.8637 28.5717 47.5364 28.085 47.124 27.676C46.715 27.2636 46.2283 26.9363 45.6921 26.7129C45.1559 26.4895 44.5808 26.3745 44 26.3745C43.4191 26.3745 42.844 26.4895 42.3078 26.7129C41.7717 26.9363 41.285 27.2636 40.876 27.676L27.676 40.876ZM0 44C0 52.7024 2.58055 61.2093 7.41534 68.4451C12.2501 75.6808 19.122 81.3204 27.1619 84.6507C35.2019 87.9809 44.0488 88.8523 52.584 87.1545C61.1191 85.4568 68.9592 81.2662 75.1127 75.1127C81.2662 68.9592 85.4568 61.1191 87.1545 52.584C88.8523 44.0488 87.9809 35.2019 84.6507 27.1619C81.3204 19.122 75.6808 12.2501 68.4451 7.41534C61.2093 2.58055 52.7024 0 44 0C38.2218 0 32.5002 1.13809 27.1619 3.3493C21.8236 5.56051 16.9731 8.80152 12.8873 12.8873C4.6357 21.1389 0 32.3305 0 44ZM79.2 44C79.2 50.9619 77.1355 57.7674 73.2677 63.556C69.3999 69.3447 63.9024 73.8563 57.4704 76.5205C51.0385 79.1847 43.9609 79.8818 37.1328 78.5236C30.3047 77.1654 24.0326 73.8129 19.1098 68.8901C14.187 63.9673 10.8346 57.6953 9.47636 50.8672C8.11816 44.039 8.81523 36.9615 11.4794 30.5295C14.1436 24.0976 18.6553 18.6001 24.4439 14.7323C30.2325 10.8644 37.0381 8.8 44 8.8C53.3356 8.8 62.2889 12.5086 68.8901 19.1098C75.4914 25.7111 79.2 34.6644 79.2 44Z" fill="#2AE1FF"/>
</svg>
